<svg style="enable-background:new 0 0 24 24" viewBox="0 0 24 24" xml:space="preserve" xmlns="http://www.w3.org/2000/svg"><style>.st0{opacity:.2;fill:none;stroke:#000;stroke-width:.05px;stroke-miterlimit:10}.st1{fill:none;stroke:#000;stroke-width:2px;stroke-linecap:round;stroke-linejoin:round;stroke-miterlimit:10}</style><path d="M12 22C6.5 22 2 17.5 2 12c0-4.7 3.4-8.9 8-9.8.4-.1.9.1 1.1.5.2.4.1.9-.2 1.2C9.7 5.1 9 6.8 9 8.5c0 3.6 2.9 6.5 6.5 6.5 1.7 0 3.4-.7 4.6-1.9.3-.3.8-.4 1.2-.2.4.2.6.6.5 1.1-.9 4.6-5.1 8-9.8 8zM7.6 5.3C5.4 6.8 4 9.2 4 12c0 4.4 3.6 8 8 8 2.8 0 5.2-1.4 6.7-3.6-1 .4-2.1.6-3.2.6C10.8 17 7 13.2 7 8.5c0-1.1.2-2.2.6-3.2z" id="Layer_2"/></svg>