<svg xmlns="http://www.w3.org/2000/svg"><defs><symbol id="icon-search" viewBox="0 0 32 32"><path fill="none" stroke="#fff" stroke-linejoin="round" stroke-linecap="round" stroke-width="2.667" d="M14.667 25.333c5.891 0 10.667-4.776 10.667-10.667S20.558 3.999 14.667 3.999 4 8.775 4 14.666s4.776 10.667 10.667 10.667zM28 28.001l-5.8-5.8"/></symbol><symbol id="icon-heart" viewBox="0 0 32 32"><path fill="#ff6b08" d="m16 30.144-2.24-2.218C5.44 20.639 0 15.728 0 9.708 0 4.797 3.84.995 8.8.995c2.72 0 5.44 1.267 7.2 3.327C17.76 2.263 20.48.995 23.2.995c4.96 0 8.8 3.802 8.8 8.713 0 6.02-5.44 10.931-13.76 18.218L16 30.144z"/></symbol><symbol id="icon-logo" viewBox="0 0 32 32"><path fill="none" stroke-linejoin="round" stroke-linecap="round" stroke-width="2.667" d="M26.427 2.667H5.574a2.907 2.907 0 0 0-2.907 2.907v20.853a2.907 2.907 0 0 0 2.907 2.907h20.853a2.907 2.907 0 0 0 2.907-2.907V5.574a2.907 2.907 0 0 0-2.907-2.907zM9.333 2.667v26.667M22.667 2.667v26.667M2.667 16h26.667M2.667 9.333h6.667M2.667 22.667h6.667M22.667 22.667h6.667M22.667 9.333h6.667"/></symbol><symbol id="icon-close" viewBox="0 0 32 32"><path stroke-width="2.133" d="m8.533 8.533 14.933 14.933M8.533 23.467 23.466 8.534"/></symbol><symbol id="icon-check" viewBox="0 0 42 32"><path d="m6.263 15.205-.22-.21-3.307 3.132 11.651 11.114L38.864 5.89l-3.285-3.134-21.192 20.197-8.124-7.75z"/></symbol><symbol id="icon-film-1" viewBox="0 0 32 32"><path fill="none" stroke="#fff" style="stroke:var(--color1,#fff)" stroke-linejoin="round" stroke-linecap="round" stroke-width="2.667" d="M26.427 2.667H5.574a2.907 2.907 0 0 0-2.907 2.907v20.853a2.907 2.907 0 0 0 2.907 2.907v0h20.853a2.907 2.907 0 0 0 2.907-2.907v0V5.574a2.907 2.907 0 0 0-2.907-2.907v0zm-17.094 0v26.667M22.667 2.667v26.667M2.667 16h26.667M2.667 9.333h6.667M2.667 22.667h6.667m13.333 0h6.667M22.667 9.333h6.667"/></symbol><symbol id="icon-Filmoteka" viewBox="0 0 173 32"><path fill="#fff" style="fill:var(--color1,#fff)" d="M5.572 2.229v28.438H.67V2.229h4.902zm11.601 12.442v3.887H4.321v-3.887h12.852zm1.621-12.442v3.906H4.321V2.229h14.473zm8.477 7.305v21.133h-4.727V9.534h4.727zm-5.039-5.547c0-.716.234-1.309.703-1.777.482-.482 1.146-.723 1.992-.723.833 0 1.491.241 1.973.723.482.469.723 1.061.723 1.777 0 .703-.241 1.289-.723 1.758s-1.139.703-1.973.703c-.846 0-1.51-.234-1.992-.703-.469-.469-.703-1.055-.703-1.758zM37.466.667v30h-4.727v-30h4.727zm9.863 13.164v16.836h-4.707V9.534h4.434l.273 4.297zm-.761 5.488-1.602-.02c0-1.458.182-2.806.547-4.043s.898-2.311 1.601-3.223a7.05 7.05 0 0 1 2.617-2.129c1.055-.508 2.272-.762 3.652-.762.963 0 1.842.143 2.637.43.807.273 1.504.71 2.09 1.309.599.599 1.055 1.367 1.367 2.305.325.938.488 2.07.488 3.398v14.082h-4.707V16.994c0-1.029-.156-1.836-.469-2.422-.299-.586-.736-1.003-1.309-1.25-.56-.26-1.23-.391-2.012-.391-.885 0-1.641.169-2.266.508-.612.339-1.113.801-1.504 1.387s-.677 1.263-.859 2.031a10.654 10.654 0 0 0-.273 2.461zm13.105-1.25-2.207.488c0-1.276.176-2.481.527-3.613.365-1.146.892-2.148 1.582-3.008.703-.872 1.569-1.556 2.598-2.051s2.207-.742 3.535-.742c1.081 0 2.044.15 2.891.449.859.286 1.589.742 2.187 1.367s1.055 1.439 1.367 2.441c.313.99.469 2.187.469 3.594v13.672h-4.727V16.975c0-1.068-.156-1.895-.469-2.48-.299-.586-.729-.99-1.289-1.211-.56-.234-1.23-.352-2.012-.352-.729 0-1.374.137-1.934.41a3.842 3.842 0 0 0-1.387 1.113 4.948 4.948 0 0 0-.859 1.621 6.961 6.961 0 0 0-.273 1.992zm16.895 2.266v-.449c0-1.523.221-2.936.664-4.238.443-1.315 1.081-2.454 1.914-3.418a8.633 8.633 0 0 1 3.086-2.266c1.224-.547 2.604-.82 4.141-.82 1.549 0 2.93.273 4.141.82a8.59 8.59 0 0 1 3.105 2.266c.846.964 1.491 2.103 1.934 3.418.443 1.302.664 2.715.664 4.238v.449c0 1.523-.221 2.936-.664 4.238s-1.087 2.441-1.934 3.418a8.965 8.965 0 0 1-3.086 2.266c-1.211.534-2.585.801-4.121.801-1.549 0-2.936-.267-4.16-.801a8.952 8.952 0 0 1-3.086-2.266c-.846-.977-1.491-2.116-1.934-3.418s-.664-2.715-.664-4.238zm4.707-.45v.449c0 .951.098 1.849.293 2.695s.501 1.589.918 2.227.95 1.139 1.601 1.504 1.426.547 2.324.547c.872 0 1.628-.182 2.266-.547.651-.365 1.185-.866 1.602-1.504s.723-1.38.918-2.227a11.26 11.26 0 0 0 .312-2.695v-.449c0-.938-.104-1.823-.312-2.656a6.813 6.813 0 0 0-.938-2.246 4.485 4.485 0 0 0-1.601-1.523c-.638-.378-1.4-.566-2.285-.566s-1.654.189-2.305.566c-.638.365-1.165.872-1.582 1.523s-.723 1.4-.918 2.246a11.63 11.63 0 0 0-.293 2.656zm28.574-10.351v3.438H97.935V9.534h11.914zm-8.477-5.176h4.707v20.469c0 .651.091 1.152.273 1.504.195.339.462.567.801.684s.736.176 1.191.176c.325 0 .638-.02.937-.059s.54-.078.723-.117l.02 3.594c-.391.117-.846.221-1.367.312-.508.091-1.094.137-1.758.137-1.081 0-2.038-.189-2.871-.566-.833-.391-1.484-1.022-1.953-1.895s-.703-2.031-.703-3.477V4.358zm21.426 26.699c-1.562 0-2.975-.254-4.238-.762-1.25-.521-2.318-1.243-3.203-2.168-.872-.925-1.543-2.012-2.012-3.262s-.703-2.598-.703-4.043v-.781c0-1.654.241-3.151.723-4.492s1.152-2.487 2.012-3.438c.859-.964 1.875-1.699 3.047-2.207s2.441-.762 3.809-.762c1.51 0 2.832.254 3.965.762s2.07 1.224 2.812 2.148c.755.911 1.315 1.999 1.68 3.262.378 1.263.566 2.656.566 4.18v2.012h-16.328v-3.379h11.68v-.371a6.6 6.6 0 0 0-.508-2.383c-.299-.742-.762-1.341-1.387-1.797s-1.458-.684-2.5-.684c-.781 0-1.478.169-2.09.508-.599.325-1.1.801-1.504 1.426s-.716 1.38-.938 2.266c-.208.872-.312 1.855-.312 2.949v.781c0 .924.124 1.784.371 2.578.26.781.638 1.465 1.133 2.051s1.094 1.048 1.797 1.387c.703.325 1.504.488 2.402.488 1.133 0 2.142-.228 3.027-.684s1.654-1.1 2.305-1.934l2.481 2.402c-.456.664-1.048 1.302-1.777 1.914-.729.599-1.621 1.087-2.676 1.465-1.042.378-2.253.566-3.633.566zM139.673.667v30h-4.727v-30h4.727zm13.126 8.867-9.2 10.195-5.039 5.156-1.231-3.984 3.809-4.707 5.976-6.66h5.684zm-4.668 21.133-6.856-9.922 2.969-3.301 9.336 13.223h-5.449zm19.569-4.239V16.35c0-.755-.136-1.406-.409-1.953s-.691-.97-1.251-1.27c-.547-.299-1.236-.449-2.069-.449-.769 0-1.433.13-1.993.391s-.996.612-1.308 1.055a2.549 2.549 0 0 0-.469 1.504h-4.687c0-.833.201-1.641.605-2.422s.989-1.478 1.757-2.09 1.687-1.094 2.755-1.445c1.067-.352 2.265-.527 3.593-.527 1.588 0 2.995.267 4.219.801 1.237.534 2.207 1.341 2.911 2.422.716 1.068 1.073 2.409 1.073 4.023v9.395c0 .963.065 1.829.196 2.598.143.755.345 1.413.605 1.973v.313h-4.824c-.221-.508-.397-1.152-.528-1.934a15.82 15.82 0 0 1-.176-2.305zm.684-8.613.039 2.91h-3.379c-.872 0-1.64.085-2.304.254-.664.156-1.217.391-1.66.703s-.775.69-.997 1.133c-.221.443-.332.944-.332 1.504s.131 1.074.391 1.543c.261.456.639.814 1.133 1.074.508.261 1.12.391 1.836.391.964 0 1.804-.195 2.52-.586.729-.404 1.301-.892 1.719-1.465.416-.586.637-1.139.664-1.66l1.523 2.09c-.156.534-.423 1.107-.8 1.719s-.873 1.198-1.485 1.758c-.599.547-1.321.996-2.168 1.348-.832.351-1.796.527-2.889.527-1.381 0-2.611-.273-3.692-.82-1.081-.56-1.927-1.309-2.539-2.246-.612-.951-.919-2.025-.919-3.223 0-1.12.208-2.109.625-2.969a5.81 5.81 0 0 1 1.875-2.187c.833-.586 1.849-1.029 3.047-1.328 1.199-.313 2.565-.469 4.103-.469h3.691z"/></symbol><symbol id="icon-search-1" viewBox="0 0 32 32"><path d="m30.276 28.391-7.567-7.567a11.875 11.875 0 0 0 2.624-7.471v-.02.001c0-6.627-5.372-12-12-12s-12 5.373-12 12 5.373 12 12 12a11.95 11.95 0 0 0 7.49-2.624l7.567 7.567c.241.241.574.391.941.391h.001a1.333 1.333 0 0 0 .943-2.276zm-16.943-5.724a9.333 9.333 0 1 1 0-18.666 9.333 9.333 0 1 1 0 18.666z"/></symbol><symbol id="icon-checkmark" viewBox="0 0 32 32"><path d="M27 4 12 19l-7-7-5 5 12 12L32 9z"/></symbol><symbol id="icon-filters" viewBox="0 0 32 32"><path d="M25.333 2.667H6.666a4 4 0 0 0-4 4v1.561c0 .578.123 1.128.343 1.624l-.01-.025v.08c.199.445.463.825.787 1.147l8.213 8.16V28.004c0 .474.248.891.621 1.127l.005.003c.2.126.442.2.702.2h.005c.219-.001.426-.055.607-.15l-.007.003 5.333-2.667c.437-.224.732-.671.733-1.186v-6.12l8.16-8.16c.323-.322.588-.702.777-1.123l.009-.024v-.08a3.935 3.935 0 0 0 .387-1.594V6.667a4 4 0 0 0-4-4zM17.72 17.72a1.33 1.33 0 0 0-.387.939v5.848l-2.667 1.333v-7.181a1.33 1.33 0 0 0-.387-.939l-7.067-7.053h17.573zM26.667 8H5.334V6.667c0-.736.597-1.333 1.333-1.333h18.667c.736 0 1.333.597 1.333 1.333z"/></symbol></defs></svg>