<svg xmlns="http://www.w3.org/2000/svg" aria-hidden="true" style="position:absolute;width:0;height:0;overflow:hidden">
  <defs>
    <symbol id="icon-github" viewBox="0 0 20 20">
      <path d="M10 .247c-5.525 0-10 4.478-10 10a9.997 9.997 0 0 0 6.837 9.487c.5.094.683-.215.683-.481 0-.238-.008-.867-.013-1.7-2.782.603-3.368-1.342-3.368-1.342-.455-1.154-1.112-1.462-1.112-1.462-.906-.62.07-.608.07-.608 1.004.07 1.532 1.03 1.532 1.03.892 1.529 2.341 1.087 2.913.832.09-.647.348-1.088.633-1.338-2.221-.25-4.555-1.11-4.555-4.942 0-1.092.388-1.983 1.029-2.683-.112-.253-.45-1.269.087-2.647 0 0 .838-.268 2.75 1.025.8-.223 1.65-.333 2.5-.338.85.005 1.7.115 2.5.337 1.9-1.293 2.737-1.025 2.737-1.025.537 1.378.2 2.394.1 2.647.637.7 1.025 1.592 1.025 2.683 0 3.842-2.338 4.688-4.563 4.933.35.3.675.913.675 1.85 0 1.338-.012 2.413-.012 2.738 0 .262.175.575.688.475a9.966 9.966 0 0 0 6.863-9.474c0-5.523-4.478-10-10-10z"/>
    </symbol>
    <symbol id="icon-linkedin" viewBox="0 0 20 20">
      <path d="M7.5 7.5h3.459v1.773h.049c.481-.863 1.659-1.773 3.415-1.773 3.651 0 4.326 2.273 4.326 5.229v6.021h-3.606v-5.337c0-1.273-.026-2.911-1.876-2.911-1.878 0-2.164 1.386-2.164 2.818v5.43H7.499V7.5zM1.25 7.5H5v11.25H1.25V7.5zM5 4.375a1.874 1.874 0 1 1-3.749.001A1.874 1.874 0 0 1 5 4.375z"/>
    </symbol>
  </defs>
</svg>
