<?xml version="1.0" encoding="utf-8"?>
<!-- Generated by IcoMoon.io -->
<svg version="1.1" xmlns="http://www.w3.org/2000/svg" xmlns:xlink="http://www.w3.org/1999/xlink">
<defs>
<symbol id="icon-search" width="32" height="32" viewBox="0 0 32 32" x="0" y="0">
<path fill="none" stroke="#fff" stroke-linejoin="round" stroke-linecap="round" stroke-miterlimit="4" stroke-width="2.6667" d="M14.667 25.333c5.891 0 10.667-4.776 10.667-10.667s-4.776-10.667-10.667-10.667c-5.891 0-10.667 4.776-10.667 10.667s4.776 10.667 10.667 10.667z"></path>
<path fill="none" stroke="#fff" stroke-linejoin="round" stroke-linecap="round" stroke-miterlimit="4" stroke-width="2.6667" d="M28 28.001l-5.8-5.8"></path>
</symbol>
<symbol id="icon-heart" width="14" height="13" viewBox="0 0 32 32" x="0" y="0">
<path fill="#ff6b08" d="M16 30.144l-2.24-2.218c-8.32-7.287-13.76-12.198-13.76-18.218 0-4.911 3.84-8.713 8.8-8.713 2.72 0 5.44 1.267 7.2 3.327 1.76-2.059 4.48-3.327 7.2-3.327 4.96 0 8.8 3.802 8.8 8.713 0 6.020-5.44 10.931-13.76 18.218l-2.24 2.218z"></path>
</symbol>
<symbol id="icon-logo" width="25" height="25" viewBox="0 0 32 32">
<path fill="none" stroke-linejoin="round" stroke-linecap="round" stroke-miterlimit="4" stroke-width="2.6667" d="M26.427 2.667h-20.853c-1.605 0-2.907 1.301-2.907 2.907v20.853c0 1.605 1.301 2.907 2.907 2.907h20.853c1.605 0 2.907-1.301 2.907-2.907v-20.853c0-1.605-1.301-2.907-2.907-2.907z"></path>
<path fill="none" stroke-linejoin="round" stroke-linecap="round" stroke-miterlimit="4" stroke-width="2.6667" d="M9.333 2.667v26.667"></path>
<path fill="none"  stroke-linejoin="round" stroke-linecap="round" stroke-miterlimit="4" stroke-width="2.6667" d="M22.667 2.667v26.667"></path>
<path fill="none"  stroke-linejoin="round" stroke-linecap="round" stroke-miterlimit="4" stroke-width="2.6667" d="M2.667 16h26.667"></path>
<path fill="none"  stroke-linejoin="round" stroke-linecap="round" stroke-miterlimit="4" stroke-width="2.6667" d="M2.667 9.333h6.667"></path>
<path fill="none"  stroke-linejoin="round" stroke-linecap="round" stroke-miterlimit="4" stroke-width="2.6667" d="M2.667 22.667h6.667"></path>
<path fill="none"  stroke-linejoin="round" stroke-linecap="round" stroke-miterlimit="4" stroke-width="2.6667" d="M22.667 22.667h6.667"></path>
<path fill="none"  stroke-linejoin="round" stroke-linecap="round" stroke-miterlimit="4" stroke-width="2.6667" d="M22.667 9.333h6.667"></path>
</symbol>
<symbol id="icon-close" width="20" height="20" viewBox="0 0 32 32" x="0" y="0">
<path stroke-linejoin="miter" stroke-linecap="butt" stroke-miterlimit="4" stroke-width="2.1333" d="M8.533 8.533l14.933 14.933"></path>
<path stroke-linejoin="miter" stroke-linecap="butt" stroke-miterlimit="4" stroke-width="2.1333" d="M8.533 23.467l14.933-14.933"></path>
</symbol>
<symbol id="icon-check" viewBox="0 0 42 32">
<path d="M6.263 15.205l-0.22-0.21-3.307 3.132 11.651 11.114 24.477-23.351-3.285-3.134-21.192 20.197-8.124-7.75z"></path>
</symbol>
<symbol id="icon-film-1" viewBox="0 0 32 32">
<path fill="none" stroke="#fff" style="stroke: var(--color1, #fff)" stroke-linejoin="round" stroke-linecap="round" stroke-miterlimit="4" stroke-width="2.6667" d="M26.427 2.667h-20.853c-1.605 0-2.907 1.301-2.907 2.907v0 20.853c0 1.605 1.301 2.907 2.907 2.907v0h20.853c1.605 0 2.907-1.301 2.907-2.907v0-20.853c0-1.605-1.301-2.907-2.907-2.907v0zM9.333 2.667v26.667M22.667 2.667v26.667M2.667 16h26.667M2.667 9.333h6.667M2.667 22.667h6.667M22.667 22.667h6.667M22.667 9.333h6.667"></path>
</symbol>
<symbol id="icon-Filmoteka" viewBox="0 0 173 32">
<path fill="#fff" style="fill: var(--color1, #fff)" d="M5.572 2.229v28.438h-4.902v-28.438h4.902zM17.173 14.671v3.887h-12.852v-3.887h12.852zM18.794 2.229v3.906h-14.473v-3.906h14.473zM27.271 9.534v21.133h-4.727v-21.133h4.727zM22.232 3.987c0-0.716 0.234-1.309 0.703-1.777 0.482-0.482 1.146-0.723 1.992-0.723 0.833 0 1.491 0.241 1.973 0.723 0.482 0.469 0.723 1.061 0.723 1.777 0 0.703-0.241 1.289-0.723 1.758s-1.139 0.703-1.973 0.703c-0.846 0-1.51-0.234-1.992-0.703-0.469-0.469-0.703-1.055-0.703-1.758zM37.466 0.667v30h-4.727v-30h4.727zM47.329 13.831v16.836h-4.707v-21.133h4.434l0.273 4.297zM46.568 19.319l-1.602-0.020c0-1.458 0.182-2.806 0.547-4.043s0.898-2.311 1.601-3.223c0.703-0.924 1.576-1.634 2.617-2.129 1.055-0.508 2.272-0.762 3.652-0.762 0.963 0 1.842 0.143 2.637 0.43 0.807 0.273 1.504 0.71 2.090 1.309 0.599 0.599 1.055 1.367 1.367 2.305 0.325 0.938 0.488 2.070 0.488 3.398v14.082h-4.707v-13.672c0-1.029-0.156-1.836-0.469-2.422-0.299-0.586-0.736-1.003-1.309-1.25-0.56-0.26-1.23-0.391-2.012-0.391-0.885 0-1.641 0.169-2.266 0.508-0.612 0.339-1.113 0.801-1.504 1.387s-0.677 1.263-0.859 2.031c-0.182 0.768-0.273 1.589-0.273 2.461zM59.673 18.069l-2.207 0.488c0-1.276 0.176-2.481 0.527-3.613 0.365-1.146 0.892-2.148 1.582-3.008 0.703-0.872 1.569-1.556 2.598-2.051s2.207-0.742 3.535-0.742c1.081 0 2.044 0.15 2.891 0.449 0.859 0.286 1.589 0.742 2.187 1.367s1.055 1.439 1.367 2.441c0.313 0.99 0.469 2.187 0.469 3.594v13.672h-4.727v-13.691c0-1.068-0.156-1.895-0.469-2.48-0.299-0.586-0.729-0.99-1.289-1.211-0.56-0.234-1.23-0.352-2.012-0.352-0.729 0-1.374 0.137-1.934 0.41-0.547 0.26-1.009 0.632-1.387 1.113-0.378 0.469-0.664 1.009-0.859 1.621-0.182 0.612-0.273 1.276-0.273 1.992zM76.568 20.335v-0.449c0-1.523 0.221-2.936 0.664-4.238 0.443-1.315 1.081-2.454 1.914-3.418 0.846-0.977 1.875-1.732 3.086-2.266 1.224-0.547 2.604-0.82 4.141-0.82 1.549 0 2.93 0.273 4.141 0.82 1.224 0.534 2.259 1.289 3.105 2.266 0.846 0.964 1.491 2.103 1.934 3.418 0.443 1.302 0.664 2.715 0.664 4.238v0.449c0 1.523-0.221 2.936-0.664 4.238s-1.087 2.441-1.934 3.418c-0.846 0.963-1.875 1.719-3.086 2.266-1.211 0.534-2.585 0.801-4.121 0.801-1.549 0-2.936-0.267-4.16-0.801-1.211-0.547-2.24-1.302-3.086-2.266-0.846-0.977-1.491-2.116-1.934-3.418s-0.664-2.715-0.664-4.238zM81.275 19.885v0.449c0 0.951 0.098 1.849 0.293 2.695s0.501 1.589 0.918 2.227 0.95 1.139 1.601 1.504c0.651 0.365 1.426 0.547 2.324 0.547 0.872 0 1.628-0.182 2.266-0.547 0.651-0.365 1.185-0.866 1.602-1.504s0.723-1.38 0.918-2.227c0.208-0.846 0.312-1.745 0.312-2.695v-0.449c0-0.938-0.104-1.823-0.312-2.656-0.195-0.846-0.508-1.595-0.938-2.246-0.417-0.651-0.951-1.159-1.601-1.523-0.638-0.378-1.4-0.566-2.285-0.566s-1.654 0.189-2.305 0.566c-0.638 0.365-1.165 0.872-1.582 1.523s-0.723 1.4-0.918 2.246c-0.195 0.833-0.293 1.719-0.293 2.656zM109.849 9.534v3.438h-11.914v-3.438h11.914zM101.372 4.358h4.707v20.469c0 0.651 0.091 1.152 0.273 1.504 0.195 0.339 0.462 0.567 0.801 0.684s0.736 0.176 1.191 0.176c0.325 0 0.638-0.020 0.937-0.059s0.54-0.078 0.723-0.117l0.020 3.594c-0.391 0.117-0.846 0.221-1.367 0.312-0.508 0.091-1.094 0.137-1.758 0.137-1.081 0-2.038-0.189-2.871-0.566-0.833-0.391-1.484-1.022-1.953-1.895s-0.703-2.031-0.703-3.477v-20.762zM122.798 31.057c-1.562 0-2.975-0.254-4.238-0.762-1.25-0.521-2.318-1.243-3.203-2.168-0.872-0.925-1.543-2.012-2.012-3.262s-0.703-2.598-0.703-4.043v-0.781c0-1.654 0.241-3.151 0.723-4.492s1.152-2.487 2.012-3.438c0.859-0.964 1.875-1.699 3.047-2.207s2.441-0.762 3.809-0.762c1.51 0 2.832 0.254 3.965 0.762s2.070 1.224 2.812 2.148c0.755 0.911 1.315 1.999 1.68 3.262 0.378 1.263 0.566 2.656 0.566 4.18v2.012h-16.328v-3.379h11.68v-0.371c-0.026-0.846-0.195-1.641-0.508-2.383-0.299-0.742-0.762-1.341-1.387-1.797s-1.458-0.684-2.5-0.684c-0.781 0-1.478 0.169-2.090 0.508-0.599 0.325-1.1 0.801-1.504 1.426s-0.716 1.38-0.938 2.266c-0.208 0.872-0.312 1.855-0.312 2.949v0.781c0 0.924 0.124 1.784 0.371 2.578 0.26 0.781 0.638 1.465 1.133 2.051s1.094 1.048 1.797 1.387c0.703 0.325 1.504 0.488 2.402 0.488 1.133 0 2.142-0.228 3.027-0.684s1.654-1.1 2.305-1.934l2.481 2.402c-0.456 0.664-1.048 1.302-1.777 1.914-0.729 0.599-1.621 1.087-2.676 1.465-1.042 0.378-2.253 0.566-3.633 0.566zM139.673 0.667v30h-4.727v-30h4.727zM152.799 9.534l-9.2 10.195-5.039 5.156-1.231-3.984 3.809-4.707 5.976-6.66h5.684zM148.131 30.667l-6.856-9.922 2.969-3.301 9.336 13.223h-5.449zM167.7 26.428v-10.078c0-0.755-0.136-1.406-0.409-1.953s-0.691-0.97-1.251-1.27c-0.547-0.299-1.236-0.449-2.069-0.449-0.769 0-1.433 0.13-1.993 0.391s-0.996 0.612-1.308 1.055c-0.312 0.443-0.469 0.944-0.469 1.504h-4.687c0-0.833 0.201-1.641 0.605-2.422s0.989-1.478 1.757-2.090 1.687-1.094 2.755-1.445c1.067-0.352 2.265-0.527 3.593-0.527 1.588 0 2.995 0.267 4.219 0.801 1.237 0.534 2.207 1.341 2.911 2.422 0.716 1.068 1.073 2.409 1.073 4.023v9.395c0 0.963 0.065 1.829 0.196 2.598 0.143 0.755 0.345 1.413 0.605 1.973v0.313h-4.824c-0.221-0.508-0.397-1.152-0.528-1.934-0.117-0.794-0.176-1.563-0.176-2.305zM168.384 17.815l0.039 2.91h-3.379c-0.872 0-1.64 0.085-2.304 0.254-0.664 0.156-1.217 0.391-1.66 0.703s-0.775 0.69-0.997 1.133c-0.221 0.443-0.332 0.944-0.332 1.504s0.131 1.074 0.391 1.543c0.261 0.456 0.639 0.814 1.133 1.074 0.508 0.261 1.12 0.391 1.836 0.391 0.964 0 1.804-0.195 2.52-0.586 0.729-0.404 1.301-0.892 1.719-1.465 0.416-0.586 0.637-1.139 0.664-1.66l1.523 2.090c-0.156 0.534-0.423 1.107-0.8 1.719s-0.873 1.198-1.485 1.758c-0.599 0.547-1.321 0.996-2.168 1.348-0.832 0.351-1.796 0.527-2.889 0.527-1.381 0-2.611-0.273-3.692-0.82-1.081-0.56-1.927-1.309-2.539-2.246-0.612-0.951-0.919-2.025-0.919-3.223 0-1.12 0.208-2.109 0.625-2.969 0.429-0.872 1.055-1.602 1.875-2.187 0.833-0.586 1.849-1.029 3.047-1.328 1.199-0.313 2.565-0.469 4.103-0.469h3.691z"></path>
</symbol>
<symbol id="icon-search-1" viewBox="0 0 32 32">
<path d="M30.276 28.391l-7.567-7.567c1.635-2.027 2.624-4.634 2.624-7.471 0-0.007 0-0.013-0-0.020v0.001c0-6.627-5.372-12-12-12s-12 5.373-12 12 5.373 12 12 12c2.833 0 5.437-0.982 7.49-2.624l7.567 7.567c0.241 0.241 0.574 0.391 0.941 0.391 0 0 0.001 0 0.001 0h-0c0 0 0 0 0 0 0.736 0 1.333-0.597 1.333-1.333 0-0.368-0.149-0.701-0.39-0.943v0zM13.333 22.667c-5.155 0-9.333-4.179-9.333-9.333s4.179-9.333 9.333-9.333c5.155 0 9.333 4.179 9.333 9.333s-4.178 9.333-9.333 9.333z"></path>
</symbol>
<symbol id="icon-checkmark" viewBox="0 0 32 32">
<path d="M27 4l-15 15-7-7-5 5 12 12 20-20z"></path>
</symbol>
<symbol id="icon-filters" viewBox="0 0 32 32">
<path d="M25.333 2.667h-18.667c-2.209 0-4 1.791-4 4v0 1.56c0 0 0 0.001 0 0.001 0 0.578 0.123 1.128 0.343 1.624l-0.010-0.025v0.080c0.199 0.445 0.463 0.825 0.787 1.147l8.213 8.16v8.787c0 0.001 0 0.002 0 0.003 0 0.474 0.248 0.891 0.621 1.127l0.005 0.003c0.2 0.126 0.442 0.2 0.702 0.2 0.002 0 0.003 0 0.005 0h-0c0.219-0.001 0.426-0.055 0.607-0.15l-0.007 0.003 5.333-2.667c0.437-0.224 0.732-0.671 0.733-1.186v-6.12l8.16-8.16c0.323-0.322 0.588-0.702 0.777-1.123l0.009-0.024v-0.080c0.228-0.468 0.369-1.015 0.387-1.594l0-0.006v-1.56c0-2.209-1.791-4-4-4v0zM17.72 17.72c-0.239 0.241-0.387 0.573-0.387 0.939 0 0.003 0 0.005 0 0.008v-0 5.84l-2.667 1.333v-7.173c0-0.002 0-0.005 0-0.008 0-0.366-0.148-0.698-0.387-0.939l0 0-7.067-7.053h17.573zM26.667 8h-21.333v-1.333c0-0.736 0.597-1.333 1.333-1.333v0h18.667c0.736 0 1.333 0.597 1.333 1.333v0z"></path>
</symbol>
<symbol id="nothing-here-space" viewBox="0 0 43 32">
<path d="M24.367 4.644c-0.017 0.050-0.033 0.422-0.033 0.833 0 0.628 0.017 0.756 0.089 0.783 0.156 0.061 0.217-0.083 0.217-0.517 0-0.233 0.022-0.389 0.044-0.344 0.45 0.761 0.611 0.989 0.706 0.989 0.144 0 0.2-0.122 0.272-0.594 0.089-0.567 0.078-0.989-0.022-1.072-0.139-0.117-0.178-0.017-0.217 0.556-0.022 0.306-0.061 0.567-0.083 0.583-0.028 0.011-0.2-0.272-0.389-0.639-0.25-0.483-0.372-0.667-0.45-0.667-0.056 0-0.117 0.039-0.133 0.089z"></path>
<path d="M29.839 4.739c-0.033 0.033-0.061 0.167-0.061 0.294v0.228l-0.261 0.039c-0.139 0.017-0.267 0.028-0.278 0.017-0.006-0.011-0.039-0.139-0.067-0.283-0.056-0.306-0.078-0.339-0.2-0.289-0.083 0.028-0.089 0.111-0.056 0.717 0.044 0.728 0.089 0.928 0.217 0.928 0.15 0 0.206-0.144 0.167-0.467l-0.039-0.311h0.561l0.050 0.289c0.039 0.244 0.067 0.3 0.172 0.311 0.067 0.011 0.133-0.017 0.156-0.061 0.028-0.072-0.022-0.567-0.122-1.217-0.033-0.217-0.133-0.3-0.239-0.194z"></path>
<path d="M33.594 4.822c-0.15 0.161-0.206 0.389-0.206 0.822 0 0.489 0.089 0.7 0.339 0.8 0.206 0.089 0.383 0.017 0.556-0.222 0.239-0.328 0.156-0.611-0.172-0.611-0.239 0-0.333 0.056-0.333 0.194 0 0.1 0.033 0.133 0.144 0.15 0.128 0.017 0.133 0.022 0.056 0.128s-0.083 0.106-0.183 0.011c-0.106-0.1-0.122-0.444-0.050-0.85 0.044-0.222 0.117-0.239 0.294-0.067 0.106 0.1 0.144 0.111 0.178 0.050 0.072-0.111 0.011-0.272-0.15-0.394-0.172-0.139-0.356-0.144-0.472-0.011z"></path>
<path d="M26.15 4.878c-0.222 0.244-0.3 1-0.133 1.322 0.194 0.378 0.644 0.35 0.961-0.061 0.222-0.289 0.256-0.778 0.078-1.028-0.217-0.306-0.722-0.433-0.906-0.233zM26.711 5.239c0.2 0.183 0.172 0.5-0.078 0.75-0.183 0.183-0.2 0.189-0.289 0.1-0.072-0.072-0.094-0.183-0.089-0.483 0.011-0.55 0.139-0.65 0.456-0.367z"></path>
<path d="M27.461 4.811c-0.039 0.017-0.072 0.078-0.072 0.133 0 0.106 0.106 0.167 0.272 0.167 0.089 0 0.106 0.072 0.128 0.539 0.033 0.578 0.072 0.739 0.178 0.739 0.139 0 0.189-0.117 0.139-0.322-0.028-0.111-0.050-0.372-0.050-0.578v-0.367l0.211-0.050c0.15-0.033 0.206-0.078 0.206-0.156 0-0.1-0.044-0.111-0.472-0.122-0.261-0.006-0.506 0.006-0.539 0.017z"></path>
<path d="M30.672 4.828c-0.061 0.039-0.067 0.161-0.022 0.694 0.056 0.678 0.128 0.85 0.311 0.778 0.106-0.039 0.111-0.072 0.044-0.817-0.061-0.628-0.133-0.778-0.333-0.656z"></path>
<path d="M32.744 4.878c-0.033 0.022-0.078 0.2-0.1 0.4-0.056 0.533-0.106 0.572-0.283 0.217-0.217-0.428-0.356-0.606-0.467-0.606-0.172 0-0.217 0.117-0.256 0.706-0.033 0.506-0.028 0.578 0.056 0.606 0.133 0.056 0.194-0.039 0.239-0.344l0.039-0.267 0.194 0.317c0.289 0.478 0.55 0.5 0.711 0.061 0.111-0.311 0.122-1.1 0.011-1.117-0.044-0.011-0.111 0-0.144 0.028z"></path>
<path d="M34.139 6.644c-1.272 0.094-3.828 0.183-8.611 0.294-1.444 0.033-1.444 0.033-1.461 0.156-0.033 0.233 0.161 0.256 1.933 0.217 4.2-0.083 6.578-0.15 7.111-0.2 0.322-0.028 0.778-0.050 1.011-0.056 0.378 0 0.439-0.017 0.489-0.117 0.050-0.089 0.044-0.139-0.033-0.222-0.050-0.056-0.122-0.1-0.156-0.094s-0.161 0.017-0.283 0.022z"></path>
<path d="M29.317 7.944c-0.15 0.117-0.15 0.122-0.15 0.828 0 0.878 0.022 0.911 0.55 0.861 0.361-0.039 0.467-0.122 0.339-0.272-0.033-0.039-0.167-0.083-0.294-0.094-0.217-0.017-0.233-0.028-0.25-0.194-0.017-0.172-0.017-0.178 0.25-0.194 0.206-0.011 0.272-0.039 0.283-0.122 0.028-0.144-0.050-0.2-0.3-0.222-0.206-0.022-0.217-0.028-0.217-0.206s0.011-0.189 0.172-0.172c0.183 0.017 0.322-0.089 0.256-0.194-0.022-0.039-0.139-0.083-0.261-0.1-0.178-0.033-0.256-0.011-0.378 0.083z"></path>
<path d="M34.617 8.089c-0.161 0.133-0.172 0.167-0.167 0.483 0.006 0.761 0.111 1.078 0.317 1 0.061-0.028 0.072-0.1 0.056-0.306-0.017-0.144-0.022-0.267-0.011-0.267s0.122 0.15 0.244 0.339c0.128 0.183 0.261 0.322 0.294 0.311 0.133-0.044 0.1-0.222-0.1-0.522s-0.2-0.306-0.111-0.494c0.094-0.2 0.067-0.428-0.072-0.594-0.117-0.133-0.25-0.117-0.45 0.050z"></path>
<path d="M26.767 8.128c-0.278 0.228-0.261 0.372 0.089 0.783 0.172 0.2 0.311 0.383 0.311 0.411s-0.133 0.072-0.289 0.1c-0.261 0.044-0.294 0.067-0.294 0.189 0 0.128 0.022 0.139 0.278 0.156 0.2 0.011 0.328-0.017 0.461-0.1 0.15-0.094 0.178-0.139 0.178-0.328 0-0.183-0.050-0.278-0.289-0.567-0.267-0.322-0.278-0.35-0.183-0.417 0.056-0.044 0.139-0.078 0.178-0.078 0.1 0 0.089-0.206-0.017-0.244-0.156-0.061-0.267-0.033-0.422 0.094z"></path>
<path d="M28.006 8.094c-0.128 0.089-0.133 0.1-0.1 0.75 0.017 0.406 0.056 0.694 0.1 0.744 0.050 0.061 0.156 0.078 0.406 0.067 0.322-0.017 0.339-0.022 0.339-0.156 0-0.122-0.028-0.139-0.228-0.156-0.183-0.011-0.239-0.044-0.267-0.139-0.056-0.222-0.033-0.256 0.172-0.272 0.361-0.028 0.311-0.317-0.050-0.322-0.128 0-0.156-0.022-0.156-0.139 0-0.122 0.022-0.139 0.189-0.139 0.206 0 0.344-0.117 0.289-0.25-0.044-0.117-0.522-0.111-0.694 0.011z"></path>
<path d="M35.789 8.128c-0.106 0.111-0.122 0.194-0.122 0.55 0 0.8 0.111 0.972 0.583 0.906 0.317-0.050 0.439-0.156 0.356-0.311-0.044-0.094-0.106-0.111-0.289-0.094-0.206 0.017-0.233 0-0.25-0.111s0-0.122 0.156-0.111c0.122 0.011 0.2-0.017 0.244-0.083 0.078-0.128-0.039-0.217-0.256-0.189-0.122 0.017-0.15-0.006-0.172-0.122-0.039-0.194-0.006-0.228 0.206-0.228 0.206 0 0.339-0.117 0.289-0.25-0.022-0.061-0.111-0.083-0.328-0.083-0.239 0-0.322 0.028-0.417 0.128z"></path>
<path d="M33.361 8.256c-0.106 0.256-0.106 0.744-0.006 0.994 0.1 0.233 0.25 0.317 0.55 0.294 0.206-0.017 0.233-0.033 0.233-0.156s-0.028-0.139-0.222-0.156c-0.228-0.022-0.306-0.078-0.306-0.244 0-0.067 0.056-0.1 0.211-0.111 0.161-0.011 0.206-0.039 0.206-0.128s-0.044-0.117-0.206-0.128c-0.183-0.017-0.211-0.039-0.211-0.156 0-0.111 0.028-0.133 0.156-0.133 0.2 0 0.311-0.078 0.272-0.189-0.028-0.067-0.111-0.089-0.317-0.089-0.267 0-0.278 0.006-0.361 0.2z"></path>
<path d="M31.789 8.233c-0.044 0.044-0.067 0.272-0.067 0.633 0 0.472 0.017 0.572 0.089 0.6 0.144 0.056 0.261-0.078 0.222-0.256-0.028-0.15-0.022-0.156 0.217-0.156s0.25 0.006 0.25 0.156c0 0.233 0.133 0.389 0.261 0.311 0.083-0.050 0.094-0.122 0.083-0.433-0.039-0.694-0.083-0.894-0.206-0.894-0.094 0-0.117 0.044-0.128 0.256-0.017 0.272-0.078 0.328-0.383 0.328-0.111 0-0.128-0.028-0.128-0.244 0-0.267-0.1-0.411-0.211-0.3z"></path>
<path d="M22.333 8.383c-0.261 0.028-0.306 0.050-0.322 0.161-0.022 0.133 0.028 0.161 0.322 0.194l0.194 0.017 0.017 0.561c0.011 0.456 0.033 0.567 0.106 0.594 0.183 0.072 0.239-0.067 0.239-0.639v-0.544l0.228-0.017c0.272-0.017 0.394-0.15 0.278-0.289-0.078-0.094-0.428-0.106-1.061-0.039z"></path>
<path d="M23.9 8.4c-0.261 0.128-0.3 0.811-0.067 1.261 0.306 0.6 0.844 0.489 0.922-0.189 0.044-0.378-0.061-0.733-0.283-0.956-0.189-0.189-0.35-0.222-0.572-0.117z"></path>
<path d="M14.222 8.706c-1.2 0.117-2.489 0.578-3.528 1.267-0.522 0.344-0.839 0.667-1.233 1.25-0.744 1.106-1.067 2.156-1.078 3.511-0.006 0.822 0.072 1.267 0.344 1.872 0.689 1.522 2.139 2.7 3.717 3.011l0.333 0.067 0.306 0.578c0.172 0.322 0.3 0.6 0.278 0.617-0.017 0.017-0.222 0.039-0.461 0.044-0.233 0.006-0.444 0.017-0.467 0.017-0.067 0.006-0.056 0.439 0.011 0.567 0.128 0.233 0.922 0.489 1.517 0.494 0.144 0 0.261 0.022 0.261 0.044 0 0.089 1.211 1.35 1.583 1.65 1.35 1.078 3.511 2.117 5.322 2.556 2.228 0.544 4.528 0.344 6.494-0.567l0.422-0.194 0.167 0.183c0.344 0.4 0.456 0.539 0.456 0.594 0 0.144 0.167 0.189 0.428 0.122 0.356-0.083 0.461-0.189 0.461-0.444 0-0.233-0.156-1.033-0.228-1.172-0.033-0.067 0.072-0.183 0.45-0.5 0.278-0.228 0.578-0.517 0.678-0.644 0.094-0.133 0.217-0.239 0.261-0.239 0.050 0 0.411 0.050 0.806 0.111 0.994 0.156 1.117 0.15 1.189-0.044 0.122-0.317 0.122-0.394-0.006-0.739-0.161-0.422-0.6-1.306-0.806-1.628-0.172-0.261-0.894-1.244-1.272-1.722l-0.256-0.333 0.178-0.344c0.133-0.256 0.367-0.528 0.956-1.1 0.556-0.544 0.872-0.906 1.111-1.272 0.839-1.272 1.289-2.656 0.989-3.017-0.078-0.094-0.406-0.1-0.483-0.011-0.028 0.039-0.094 0.233-0.144 0.433-0.139 0.539-0.411 1.078-0.878 1.694-0.494 0.661-0.789 0.939-1.478 1.411-0.556 0.383-0.906 0.733-1.083 1.094l-0.111 0.233-0.394-0.267c-0.644-0.428-1.156-0.656-1.883-0.833-0.728-0.183-2.517-0.45-3.65-0.556-1.628-0.15-2.25-0.228-2.917-0.372-0.644-0.139-0.7-0.161-0.667-0.267 0.333-1.178 0.328-1.128 0.328-2.139 0.006-0.872-0.006-1.017-0.122-1.389-0.444-1.4-1.378-2.511-2.667-3.161-0.739-0.372-2.144-0.578-3.233-0.467zM16.344 9.133c1.211 0.278 2.183 0.95 2.867 1.972 0.633 0.944 0.878 1.789 0.833 2.889-0.028 0.639-0.239 1.728-0.333 1.728-0.022 0-0.044-0.033-0.044-0.072 0-0.117-0.472-1.111-0.689-1.456-0.117-0.183-0.3-0.444-0.411-0.578-0.189-0.233-0.2-0.261-0.2-0.706-0.006-0.55-0.089-0.694-0.35-0.6-0.117 0.039-0.206 0.15-0.35 0.45l-0.194 0.4-0.367 0.006c-0.878 0-2.594 0.328-3.244 0.617-0.383 0.167-0.894 0.478-1.117 0.672l-0.194 0.172-0.178-0.178c-0.356-0.339-0.467-0.222-0.533 0.567-0.111 1.306 0.106 2.828 0.572 3.917l0.194 0.461-0.178-0.033c-1.544-0.322-3.050-1.7-3.583-3.278-0.139-0.417-0.144-0.511-0.15-1.417 0-0.839 0.017-1.033 0.128-1.433 0.228-0.828 0.65-1.706 1.122-2.333 0.672-0.883 2.439-1.7 4.167-1.922 0.472-0.061 1.65 0.022 2.233 0.156zM18.111 13.028v0.417l0.311 0.406c0.178 0.228 0.489 0.767 0.728 1.256l0.422 0.861-0.294 0.272c-1.25 1.15-2.644 2.083-3.778 2.528-0.639 0.256-2.211 0.678-2.506 0.678-0.089 0-0.422-0.739-0.594-1.306-0.239-0.778-0.306-1.289-0.311-2.456-0.006-0.933 0.022-1.189 0.122-1.039 0.022 0.033 0.094 0.128 0.161 0.211l0.128 0.156 0.311-0.283c0.422-0.383 1.261-0.789 2.022-0.972 0.689-0.167 1.878-0.322 2.356-0.311 0.472 0.011 0.467 0.011 0.511-0.128 0.072-0.244 0.311-0.706 0.361-0.706 0.028 0 0.050 0.189 0.050 0.417zM33.339 14.261c-0.061 0.211-0.228 0.617-0.372 0.906-0.433 0.894-0.811 1.4-1.694 2.278-0.583 0.572-0.861 0.889-0.967 1.106l-0.15 0.3-0.256-0.244c-0.144-0.133-0.267-0.25-0.283-0.256-0.011-0.006 0.011-0.094 0.056-0.189 0.122-0.3 0.706-0.872 1.311-1.283 0.628-0.428 0.967-0.772 1.456-1.489 0.372-0.539 0.611-1.006 0.756-1.444 0.056-0.167 0.128-0.339 0.161-0.383 0.111-0.144 0.106 0.294-0.017 0.7zM20.367 16.3c0.789 0.178 1.194 0.233 2.633 0.367 2.361 0.217 4.239 0.561 4.983 0.911 0.494 0.233 0.961 0.55 1.556 1.044 0.55 0.456 0.778 0.717 1.567 1.794 0.622 0.85 0.967 1.433 1.294 2.222 0.178 0.422 0.183 0.456 0.1 0.594-0.044 0.089-0.117 0.144-0.167 0.133-0.044-0.017-0.456-0.067-0.917-0.117-1.133-0.122-1.967-0.25-2.122-0.322-0.089-0.039-0.15-0.039-0.189 0-0.094 0.094 0.2 0.239 0.689 0.328 0.25 0.050 0.489 0.1 0.533 0.111 0.111 0.033-0.133 0.278-0.783 0.778-1.394 1.072-2.7 1.678-4.239 1.972-0.878 0.167-2.4 0.183-3.356 0.033-1.922-0.306-4.561-1.494-6.022-2.717-0.9-0.756-1.789-1.85-2.5-3.083l-0.372-0.656 0.233-0.044c1.567-0.306 2.144-0.483 3.033-0.933 1.017-0.517 2.072-1.272 3.011-2.156 0.228-0.211 0.422-0.389 0.422-0.394 0.006 0 0.278 0.061 0.611 0.133zM13.778 21.439c0.122 0.183 0.222 0.344 0.222 0.356 0 0.039-0.7-0.072-0.956-0.161-0.25-0.083-0.433-0.267-0.433-0.439 0-0.067 0.083-0.083 0.472-0.083h0.467l0.228 0.328zM29.233 25.228c0.15 0.567 0.133 0.678-0.094 0.789l-0.189 0.089-0.322-0.333c-0.178-0.189-0.322-0.367-0.322-0.394 0-0.072 0.7-0.539 0.778-0.522 0.033 0.006 0.1 0.172 0.15 0.372z"></path>
<path d="M15.394 9.472c0.017 0.078 0.161 0.139 0.622 0.256 0.606 0.161 1.328 0.45 1.717 0.7 0.311 0.194 0.506 0.15 0.383-0.089-0.15-0.272-1.661-0.878-2.35-0.933-0.356-0.033-0.389-0.022-0.372 0.067z"></path>
<path d="M17.822 19.472c-0.122 0.067-0.728 0.233-1.389 0.383-0.139 0.033-0.156 0.061-0.156 0.244 0 0.444 0.461 0.694 1.289 0.7 0.489 0.006 0.556-0.006 0.667-0.117 0.167-0.172 0.1-0.206-0.239-0.128-0.356 0.089-0.933 0.039-1.206-0.094-0.206-0.106-0.35-0.394-0.217-0.428 0.039-0.011 0.289-0.072 0.561-0.139 0.528-0.122 1.011-0.328 0.994-0.422-0.017-0.089-0.144-0.089-0.306 0z"></path>
<path d="M14.010 15.995c0 0.123-0.1 0.222-0.222 0.222s-0.222-0.099-0.222-0.222c0-0.123 0.1-0.222 0.222-0.222s0.222 0.1 0.222 0.222z"></path>
<path d="M16.677 15.162c0 0.123-0.099 0.222-0.222 0.222s-0.222-0.1-0.222-0.222c0-0.123 0.099-0.222 0.222-0.222s0.222 0.1 0.222 0.222z"></path>
</symbol>
</defs>
</svg>
